<?xml version="1.0" standalone="no"?>
<!DOCTYPE svg PUBLIC "-//W3C//DTD SVG 20010904//EN"
 "http://www.w3.org/TR/2001/REC-SVG-20010904/DTD/svg10.dtd">
<svg version="1.0" xmlns="http://www.w3.org/2000/svg"
 width="700.000000pt" height="700.000000pt" viewBox="0 0 700.000000 700.000000"
 preserveAspectRatio="xMidYMid meet">
<metadata>
Created by potrace 1.11, written by Peter Selinger 2001-2013
</metadata>
<g transform="translate(0.000000,700.000000) scale(0.100000,-0.100000)"
fill="#000000" stroke="none">
<path d="M6530 6985 c-82 -24 -90 -27 -90 -36 0 -5 -7 -9 -16 -9 -16 0 -674
-649 -705 -697 -23 -34 -24 -76 -4 -106 14 -22 12 -26 -54 -91 l-68 -68 -30
15 c-16 9 -38 14 -49 12 -10 -2 -25 -4 -33 -4 -8 -1 -433 -420 -944 -931 -678
-677 -935 -929 -946 -924 -90 38 -118 43 -200 40 -115 -3 -180 -34 -277 -131
-92 -92 -128 -163 -136 -262 -1 -18 -3 -33 -4 -33 -1 0 -39 18 -86 39 -155 72
-301 110 -438 116 -115 5 -202 -7 -290 -42 -188 -75 -300 -201 -695 -778 -110
-161 -238 -334 -324 -440 -98 -121 -285 -303 -384 -374 -189 -136 -410 -218
-599 -222 -77 -2 -115 -16 -138 -54 -13 -21 -19 -44 -16 -62 2 -15 5 -32 5
-38 2 -17 1225 -1237 1254 -1249 53 -24 82 -9 265 134 98 76 179 136 181 134
2 -2 -9 -34 -24 -71 -60 -149 -127 -364 -139 -443 -2 -14 2 -36 10 -50 7 -14
86 -98 176 -186 177 -175 197 -187 261 -160 43 18 58 43 63 110 10 143 20 201
53 304 79 247 270 489 582 741 137 110 119 96 203 156 85 60 107 105 82 166
-5 11 9 27 53 57 76 54 85 57 106 35 13 -12 34 -18 64 -18 42 0 58 8 191 104
319 229 417 330 483 494 35 88 46 155 42 277 -4 145 -57 337 -134 489 -24 46
-25 45 49 55 74 11 149 54 226 131 96 97 127 161 131 276 2 82 -4 110 -41 200
-5 11 370 392 1387 1410 1090 1090 1400 1405 1420 1444 100 199 26 422 -171
516 -74 36 -179 46 -252 24z"/>
<path d="M1465 5773 c-66 -34 -107 -92 -120 -168 -54 -298 -103 -399 -238
-486 -66 -43 -107 -56 -285 -93 -139 -30 -168 -42 -207 -88 -37 -44 -48 -74
-47 -134 0 -62 29 -123 76 -159 30 -23 167 -61 281 -78 47 -7 141 -43 177 -68
113 -77 175 -174 207 -324 56 -258 63 -276 128 -319 80 -53 186 -43 253 24 43
43 55 76 96 270 31 150 68 225 149 298 53 49 136 96 186 106 234 47 287 61
324 85 98 65 118 204 43 295 -41 51 -72 64 -211 92 -172 35 -218 50 -284 93
-111 71 -181 186 -207 336 -38 216 -65 273 -148 316 -46 23 -131 25 -173 2z"/>
<path d="M331 3966 c-81 -57 -40 -186 58 -186 115 0 146 166 38 199 -45 13
-63 11 -96 -13z"/>
<path d="M1070 3373 c-27 -11 -58 -55 -62 -89 -7 -62 47 -114 118 -114 23 0
83 52 85 73 0 7 2 22 3 35 7 65 -77 120 -144 95z"/>
<path d="M500 3024 c-64 -22 -89 -57 -85 -114 2 -24 13 -43 34 -62 59 -53 144
-29 168 47 22 68 -54 150 -117 129z"/>
<path d="M4208 1787 c-14 -12 -31 -31 -36 -42 -16 -32 -9 -345 8 -372 41 -64
145 -59 181 9 19 35 18 338 -1 373 -29 55 -106 71 -152 32z"/>
<path d="M3741 1299 c-106 -22 -115 -170 -12 -199 20 -5 102 -10 182 -10 136
0 148 2 180 23 67 45 60 148 -13 178 -31 13 -284 19 -337 8z"/>
<path d="M4488 1302 c-75 -9 -115 -105 -70 -169 27 -37 74 -45 246 -41 l158 3
29 33 c51 57 30 144 -41 167 -24 8 -269 13 -322 7z"/>
<path d="M4213 1050 c-44 -27 -51 -59 -49 -240 2 -165 7 -187 53 -211 56 -30
128 -1 148 59 6 18 10 100 9 186 -2 170 -9 195 -68 216 -41 14 -56 13 -93 -10z"/>
<path d="M2893 645 c-46 -19 -67 -57 -60 -106 6 -48 29 -76 71 -88 80 -21 151
56 125 136 -17 54 -81 81 -136 58z"/>
</g>
</svg>
