<?xml version="1.0" encoding="iso-8859-1"?>
<!-- Generator: Adobe Illustrator 19.0.0, SVG Export Plug-In . SVG Version: 6.00 Build 0)  -->
<svg version="1.1" id="Capa_1" xmlns="http://www.w3.org/2000/svg" xmlns:xlink="http://www.w3.org/1999/xlink" x="0px" y="0px"
	 viewBox="0 0 480 480" style="enable-background:new 0 0 480 480;" xml:space="preserve">
<g>
	<path style="fill:#E8B408;" d="M264,154.4V200h24l0,0h32V96h-9.6C304.8,121.6,285.6,144,264,154.4z"/>
	<path style="fill:#E8B408;" d="M216,200v-45.6c-24-11.2-44.8-37.6-48-67.2l0,0c-2.4,0-5.6,0.8-8,0.8v112h32h-32"/>
</g>
<polyline style="fill:#6A9FD3;" points="152,200 192,360 288,360 328,200 320,200 288,200 288,224 240,240 192,224 192,200 216,200 
	"/>
<path style="fill:#E8B408;" d="M179.2,85.6h0.8c3.2-0.8,6.4-1.6,9.6-2.4c0.8,0,0.8,0,1.6-0.8c3.2-0.8,5.6-1.6,8.8-3.2
	c0.8,0,1.6-0.8,2.4-0.8c2.4-0.8,5.6-2.4,8-3.2c0.8-0.8,2.4-0.8,3.2-1.6c2.4-0.8,4.8-2.4,6.4-4c1.6-0.8,3.2-1.6,4-2.4
	c1.6-0.8,4-2.4,5.6-3.2c1.6-1.6,4-2.4,5.6-4c1.6-0.8,2.4-1.6,4-3.2c3.2-2.4,5.6-5.6,8.8-8c0,26.4,21.6,48,48,48h14.4h9.6v-8
	c0-45.6-32-80-80-80s-78.4,38.4-80,80c3.2,0,5.6-0.8,8-0.8C172,86.4,175.2,86.4,179.2,85.6z"/>
<g>
	<path style="fill:#EAE8CA;" d="M264,200v-45.6c-5.6,2.4-12,4.8-17.6,4.8l0,0c-2.4,0-4,0-6.4,0c-8,0-16-2.4-24-5.6V200h-24v24l48,16
		l48-16v-24l0,0H264z"/>
	<path style="fill:#EAE8CA;" d="M395.2,451.2c12-1.6,20.8-12,20.8-23.2c0-14.4-12.8-25.6-27.2-23.2L240,424l63.2,39.2L395.2,451.2z"
		/>
	<path style="fill:#EAE8CA;" d="M64,427.2c0,12,8.8,21.6,20.8,23.2L240,472l63.2-8.8L240,424L91.2,404C76.8,401.6,64,412.8,64,427.2
		z"/>
	<path style="fill:#EAE8CA;" d="M408,368h-24l-32-56v-88c0-13.6-10.4-24-24-24l-32,128l64,72h48c8.8,0,16-7.2,16-16
		S416.8,368,408,368z"/>
	<path style="fill:#EAE8CA;" d="M240,160c2.4,0,4,0,6.4,0l0,0c5.6-0.8,12-2.4,17.6-5.6l0,0c21.6-10.4,40.8-32.8,46.4-58.4H296
		c-26.4,0-48-21.6-48-48c-3.2,3.2-5.6,5.6-8.8,8c-1.6,0.8-2.4,2.4-4,3.2c-1.6,1.6-3.2,3.2-5.6,4c-1.6,1.6-4,2.4-5.6,3.2
		c-1.6,0.8-2.4,1.6-4,2.4c-2.4,1.6-4.8,2.4-6.4,4c-0.8,0.8-2.4,0.8-3.2,1.6c-2.4,1.6-4.8,2.4-8,3.2c-0.8,0-1.6,0.8-2.4,0.8
		c-3.2,0.8-5.6,2.4-8.8,3.2c-0.8,0-0.8,0-1.6,0.8c-3.2,0.8-6.4,1.6-9.6,2.4h-0.8c-3.2,0.8-7.2,1.6-10.4,1.6l0,0
		c3.2,29.6,23.2,56,48,67.2l0,0C224,157.6,232,160,240,160z"/>
	<path style="fill:#EAE8CA;" d="M128,224v88l-32,56H72c-8.8,0-16,7.2-16,16s7.2,16,16,16h48l64-72l-32-128
		C138.4,200,128,210.4,128,224z"/>
</g>
<polygon style="fill:#6A9FD3;" points="143.2,408.8 240,424 336.8,408.8 288,360 192,360 "/>
<g>
	<rect x="464" y="16" style="fill:#222426;" width="16" height="16"/>
	<rect x="448" style="fill:#222426;" width="16" height="16"/>
	<rect x="432" y="16" style="fill:#222426;" width="16" height="16"/>
	<rect x="448" y="32" style="fill:#222426;" width="16" height="16"/>
	<rect x="400" y="16" style="fill:#222426;" width="16" height="16"/>
	<rect x="384" y="176" style="fill:#222426;" width="16" height="16"/>
	<rect x="416" y="176" style="fill:#222426;" width="16" height="16"/>
	<rect x="400" y="160" style="fill:#222426;" width="16" height="16"/>
	<rect x="400" y="192" style="fill:#222426;" width="16" height="16"/>
	<rect x="88" y="152" style="fill:#222426;" width="16" height="16"/>
	<rect x="72" y="136" style="fill:#222426;" width="16" height="16"/>
	<rect x="56" y="152" style="fill:#222426;" width="16" height="16"/>
	<rect x="72" y="168" style="fill:#222426;" width="16" height="16"/>
	<rect x="24" y="152" style="fill:#222426;" width="16" height="16"/>
	<rect y="48" style="fill:#222426;" width="16" height="16"/>
	<rect x="32" y="48" style="fill:#222426;" width="16" height="16"/>
	<rect x="16" y="32" style="fill:#222426;" width="16" height="16"/>
	<rect x="16" y="64" style="fill:#222426;" width="16" height="16"/>
	<rect x="112" style="fill:#222426;" width="16" height="16"/>
	<path style="fill:#222426;" d="M408,360h-19.2L360,309.6V224c0-17.6-14.4-32-32-32V96v-8c0-51.2-36.8-88-88-88
		c-55.2,0-86.4,44.8-88,88l0,0l0,0v104c-17.6,0-32,14.4-32,32v85.6L91.2,360H72c-13.6,0-24,10.4-24,24c0,10.4,6.4,19.2,16,22.4
		c-4.8,5.6-8,12.8-8,20.8c0,16,12,29.6,27.2,31.2l156,21.6h0.8h0.8L396,459.2c16-2.4,27.2-16,27.2-31.2c0-8-3.2-15.2-8-20.8
		c9.6-3.2,16-12,16-22.4C432,370.4,421.6,360,408,360z M344,224v88c0,1.6,0,2.4,0.8,4l32,56c1.6,2.4,4,4,7.2,4h24c4.8,0,8,3.2,8,8
		s-3.2,8-8,8h-44.8L304,325.6l28.8-116.8C340,211.2,344,217.6,344,224z M184,208v16c0,3.2,2.4,6.4,5.6,7.2l48,16
		c0.8,0,1.6,0.8,2.4,0.8s1.6,0,2.4-0.8l48-16c3.2-0.8,5.6-4,5.6-7.2v-16h21.6L288,326.4l-6.4,25.6h-83.2l-6.4-25.6L162.4,208H184z
		 M220,79.2C220,78.4,220,78.4,220,79.2c2.4-1.6,4.8-2.4,7.2-4c0.8,0,0.8-0.8,1.6-0.8c2.4-1.6,4-2.4,6.4-4c0.8-0.8,2.4-1.6,3.2-2.4
		c1.6-0.8,2.4-1.6,4-3.2c0,0.8,0.8,1.6,0.8,2.4c0.8,2.4,1.6,4,2.4,6.4v0.8c5.6,10.4,13.6,19.2,24,24.8l0,0c2.4,1.6,5.6,2.4,8,3.2
		c0.8,0,1.6,0.8,2.4,0.8c2.4,0.8,4,1.6,6.4,1.6c3.2-0.8,6.4-0.8,9.6-0.8h3.2c-7.2,19.2-22.4,35.2-38.4,43.2l0,0
		c-3.2,1.6-7.2,3.2-10.4,4l0,0c-10.4,2.4-20,0.8-31.2-4h-0.8c-19.2-9.6-36-29.6-40.8-52.8C192,91.2,206.4,85.6,220,79.2z M224,200
		v-34.4c2.4,0.8,4.8,0.8,7.2,1.6h0.8c2.4,0,4.8,0.8,8,0.8c2.4,0,4.8,0,7.2-0.8c0.8,0,1.6,0,1.6,0c2.4,0,4-0.8,5.6-1.6h0.8V200
		c0,4.8,3.2,8,8,8h16v10.4l-40,13.6l-40-13.6V208h16C220.8,208,224,204.8,224,200z M240,416l-80-12.8l35.2-35.2h89.6l35.2,35.2
		L240,416z M183.2,357.6l-44.8,44.8l-8.8-0.8l50.4-56L183.2,357.6z M341.6,402.4l-44.8-44.8l3.2-12.8l50.4,56L341.6,402.4z M288,192
		h-16v-32.8c16.8-8.8,31.2-24.8,40-44V192H288z M240,16c42.4,0,72,29.6,72,72h-16c-22.4,0-40-17.6-40-40c0-3.2-1.6-6.4-4.8-7.2
		c-0.8-0.8-1.6-0.8-3.2-0.8l0,0c0,0,0,0-0.8,0s-1.6,0-2.4,0.8H244c-0.8,0-1.6,0.8-2.4,1.6c-20,20-45.6,32.8-73.6,36.8
		C174.4,47.2,199.2,16,240,16z M168,115.2c8.8,18.4,23.2,34.4,40,44V192h-16h-24V115.2z M72,376h24c3.2,0,5.6-1.6,7.2-4l32-56
		c0.8-1.6,0.8-2.4,0.8-4v-88c0-6.4,4-12.8,10.4-15.2l28.8,116.8L116.8,392H72c-4.8,0-8-3.2-8-8S67.2,376,72,376z M240,464
		L85.6,443.2c-8-0.8-13.6-8-13.6-16c0-4.8,1.6-8.8,5.6-12c3.2-2.4,6.4-4,10.4-4c0.8,0,1.6,0,2.4,0L237.6,432l43.2,26.4L240,464z
		 M394.4,443.2l-89.6,12l-41.6-26.4l127.2-17.6c4.8-0.8,8.8,0.8,12.8,4c3.2,3.2,5.6,7.2,5.6,12C408,435.2,402.4,441.6,394.4,443.2z"
		/>
</g>
<g>
</g>
<g>
</g>
<g>
</g>
<g>
</g>
<g>
</g>
<g>
</g>
<g>
</g>
<g>
</g>
<g>
</g>
<g>
</g>
<g>
</g>
<g>
</g>
<g>
</g>
<g>
</g>
<g>
</g>
</svg>
