<?xml version="1.0" standalone="no"?>
<!DOCTYPE svg PUBLIC "-//W3C//DTD SVG 20010904//EN"
 "http://www.w3.org/TR/2001/REC-SVG-20010904/DTD/svg10.dtd">
<svg version="1.0" xmlns="http://www.w3.org/2000/svg"
 width="700.000000pt" height="700.000000pt" viewBox="0 0 700.000000 700.000000"
 preserveAspectRatio="xMidYMid meet">
<metadata>
Created by potrace 1.11, written by Peter Selinger 2001-2013
</metadata>
<g transform="translate(0.000000,700.000000) scale(0.100000,-0.100000)"
fill="#000000" stroke="none">
<path d="M1633 6885 c0 -73 4 -115 11 -117 10 -3 127 -2 197 1 l25 1 1 115 0
115 -117 0 -117 0 0 -115z"/>
<path d="M3330 6989 c-25 -4 -63 -10 -85 -14 -166 -27 -364 -115 -505 -222
-237 -180 -416 -463 -484 -763 -39 -170 -40 -194 -40 -1027 0 -678 -2 -763
-16 -764 -8 -1 -31 -3 -50 -5 -129 -15 -275 -117 -342 -241 -56 -102 -57 -120
-58 -822 l0 -645 -86 -150 c-47 -83 -89 -158 -95 -166 -35 -57 -219 -385 -219
-391 0 -21 -41 -27 -205 -31 -173 -3 -182 -5 -243 -32 -77 -36 -149 -112 -177
-188 -30 -81 -27 -197 7 -270 31 -66 96 -136 153 -162 22 -10 42 -20 44 -22 2
-1 -7 -18 -20 -36 -83 -115 -111 -268 -73 -394 45 -152 176 -283 314 -315 33
-8 192 -32 355 -54 132 -18 194 -27 215 -30 14 -3 61 -9 105 -15 44 -6 90 -12
102 -14 12 -3 46 -7 75 -11 68 -8 86 -10 183 -24 44 -7 96 -14 115 -17 19 -3
69 -9 110 -14 41 -6 89 -12 105 -15 48 -8 143 -21 290 -40 22 -3 54 -7 70 -10
39 -6 91 -13 135 -19 72 -9 136 -19 155 -22 11 -2 47 -7 80 -10 33 -4 62 -8
65 -9 11 -6 145 -20 195 -20 46 0 140 9 190 19 19 4 61 9 160 21 37 5 85 12
145 20 14 2 79 11 145 20 66 9 131 18 145 20 14 2 48 6 75 10 28 4 66 9 85 11
19 3 51 7 70 9 19 2 64 8 100 14 36 5 90 13 120 16 30 3 66 8 80 10 14 2 45 6
70 10 25 3 62 8 83 11 50 8 73 11 137 18 30 4 66 8 80 11 14 2 50 7 80 10 30
3 62 8 70 10 8 2 38 6 65 10 65 7 101 12 153 19 23 3 61 8 85 12 179 23 256
46 327 96 216 155 263 439 107 650 -11 15 -19 29 -16 30 2 2 26 14 52 28 62
32 106 80 142 155 25 52 29 72 29 155 1 88 -1 100 -31 161 -38 77 -83 121
-161 157 -54 25 -67 27 -237 30 -164 4 -205 10 -205 31 0 4 -48 90 -106 192
-59 101 -119 208 -135 237 -16 28 -40 70 -54 92 -14 22 -25 42 -25 45 0 3 -15
29 -33 58 -18 29 -36 60 -40 70 -4 10 -7 307 -7 660 -1 357 -5 664 -11 691
-38 203 -228 364 -439 375 -14 1 -16 81 -15 741 0 694 -4 897 -19 995 -31 200
-93 363 -198 519 -73 109 -128 170 -228 254 -62 53 -210 152 -225 152 -2 0
-28 11 -57 24 -87 41 -223 81 -343 101 -57 10 -332 13 -385 4z m1174 -5160
c79 -89 284 -317 296 -329 3 -3 23 -25 44 -50 22 -25 79 -88 127 -140 113
-123 129 -142 129 -150 0 -4 -21 -11 -47 -15 -27 -5 -53 -9 -59 -11 -6 -1
-158 145 -338 325 l-327 327 23 93 22 92 46 -49 c25 -27 62 -69 84 -93z
m-1854 40 l22 -82 -109 -109 c-452 -456 -544 -543 -568 -542 -14 1 -44 2 -66
3 l-41 1 68 77 c38 43 78 87 89 99 11 11 52 56 90 99 39 44 77 86 85 95 8 9
47 51 85 95 39 43 85 95 103 114 18 20 72 80 120 134 47 53 90 97 93 97 4 0
17 -37 29 -81z"/>
<path d="M6537 6993 c-2 -5 -4 -52 -3 -106 1 -55 -2 -104 -6 -110 -4 -6 -49
-11 -117 -11 l-111 0 0 -116 0 -116 117 0 117 1 -1 116 0 115 116 0 117 1 0
-116 -1 -116 -100 -1 c-55 -1 -107 -2 -116 -3 -14 -1 -16 -17 -15 -116 l1
-116 115 3 115 3 1 108 c0 59 4 110 7 114 4 3 55 7 114 7 l108 1 3 116 3 117
-107 -2 c-65 0 -112 3 -118 10 -7 6 -11 53 -10 117 l1 107 -113 0 c-62 0 -115
-3 -117 -7z"/>
<path d="M5839 6766 c-1 -1 -3 -53 -4 -117 l-2 -115 114 0 c94 -1 113 2 117
15 2 9 3 61 2 116 l-1 100 -112 1 c-62 0 -114 0 -114 0z"/>
<path d="M238 6525 c0 -5 -2 -57 -2 -115 l-2 -105 -117 -3 -117 -3 0 -113 c0
-82 3 -115 13 -118 6 -2 59 -3 117 -2 l106 1 -1 -116 0 -116 115 0 115 0 1
116 1 116 -109 -1 c-63 0 -113 3 -118 9 -4 6 -7 57 -6 115 l1 105 115 5 115 5
1 113 c1 76 -2 112 -10 113 -67 6 -216 2 -218 -6z"/>
<path d="M469 6290 c-6 -64 -2 -206 7 -214 8 -9 136 -13 212 -7 9 1 12 31 12
116 l0 115 -115 0 c-69 0 -115 -4 -116 -10z"/>
<path d="M1050 4900 l0 -117 -115 1 c-109 1 -115 0 -116 -19 -4 -98 -4 -192
-1 -202 3 -10 36 -13 118 -13 l114 0 0 -117 0 -118 108 0 c59 1 112 4 117 7 6
3 10 53 9 117 l-1 111 117 0 117 0 -1 110 c-1 74 -5 113 -13 118 -6 4 -51 7
-100 6 -129 -2 -120 -11 -119 112 1 61 -3 109 -9 112 -5 4 -58 7 -117 8 l-108
0 0 -116z m230 -119 c4 -1 5 -193 1 -223 -1 -5 -53 -8 -116 -8 l-115 0 0 113
c0 63 2 116 4 118 3 3 205 3 226 0z"/>
<path d="M361 4782 c-7 -2 -11 -47 -11 -118 l0 -114 115 0 c63 0 116 3 116 8
6 40 2 215 -5 220 -10 6 -198 10 -215 4z"/>
<path d="M5839 4666 c-4 -3 -7 -204 -3 -217 3 -13 23 -15 117 -15 l112 1 0
115 0 115 -112 1 c-62 0 -114 0 -114 0z"/>
<path d="M5604 4431 c-2 -2 -4 -55 -4 -117 l0 -113 117 -3 117 -3 0 -115 1
-114 98 1 c53 0 105 1 115 2 16 1 18 12 18 116 l1 115 -117 0 -116 0 0 105 c1
58 -1 111 -4 118 -3 8 -37 12 -113 12 -60 0 -111 -2 -113 -4z"/>
<path d="M6077 4428 c-8 -4 -12 -41 -11 -115 l1 -108 116 -3 117 -3 0 116 c0
63 -3 115 -7 116 -36 5 -207 3 -216 -3z"/>
</g>
</svg>
